<svg xmlns="http://www.w3.org/2000/svg" width="192" height="192"><path d="M2 2h28v28H2z" transform-origin="16px 16px" stroke-width="0" stroke="#fff" fill="#51fd00" transform="matrix(6.857143 0 0 6.857143 80.000001 80.000001)"/><path d="M11.029-2.467c-3.476-.001-5.65 3.762-3.913 6.773.113.194.239.38.379.556-2.955 2.742-1.834 7.655 2.018 8.843s7.546-2.238 6.65-6.169a5.24 5.24 0 0 0-1.577-2.704 4.52 4.52 0 0 0-2.923-7.255c-.21-.03-.422-.045-.634-.045M9.763 2.048c0-.975 1.055-1.584 1.899-1.096.392.226.633.644.633 1.096a1.27 1.27 0 0 1-1.899 1.096c-.392-.226-.633-.644-.633-1.096M9.32 8.7a1.74 1.74 0 0 1 2.606-1.504c.537.31.868.883.868 1.504a1.74 1.74 0 0 1-2.605 1.504c-.538-.31-.869-.884-.869-1.504" fill="#0b3800" transform="matrix(6.857143 0 0 6.857143 113.888002 150.368002)" transform-origin="16px 16px"/></svg>