<?xml version="1.0" encoding="utf-8"?>
<svg xmlns="http://www.w3.org/2000/svg" viewBox="0 0 192 192" width="192" height="192" xmlns:bx="https://boxy-svg.com"><path fill="#51fd00" d="M0 0h192v192H0V0Z" transform-origin="1024px 1024px"/><path d="M 86.85 149.85 Q 75.9 149.85 68.4 147.22 Q 60.9 144.6 57.08 140.4 Q 53.25 136.2 53.25 131.55 Q 53.25 128.1 54.98 126.07 Q 56.7 124.05 61.65 124.05 Q 64.65 124.05 67.05 124.95 Q 69.45 125.85 73.2 126.82 Q 76.95 127.8 83.55 127.8 Q 91.95 127.8 97.8 127.35 Q 103.65 126.9 108.3 125.92 Q 112.95 124.95 117.75 123 Q 116.85 119.4 112.95 116.92 Q 109.05 114.45 103.13 112.57 Q 97.2 110.7 90.38 108.97 Q 83.55 107.25 76.73 105 Q 69.9 102.75 64.43 99.6 Q 58.95 96.45 55.5 91.87 Q 52.05 87.3 52.05 80.7 Q 52.05 73.95 55.8 68.4 Q 59.55 62.85 65.85 58.57 Q 72.15 54.3 79.88 51.15 Q 87.6 48 95.85 45.97 Q 104.1 43.95 111.53 42.97 Q 118.95 42 124.65 42 Q 130.2 42 133.43 43.72 Q 136.65 45.45 138 48.22 Q 139.35 51 139.35 54.45 Q 139.35 58.35 136.65 61.27 Q 133.95 64.2 128.7 64.5 Q 111.45 65.55 99.68 67.8 Q 87.9 70.05 81.9 73.35 Q 75.9 76.65 75.9 81 Q 75.9 83.25 79.43 84.82 Q 82.95 86.4 88.58 87.82 Q 94.2 89.25 101.03 90.97 Q 107.85 92.7 114.68 95.17 Q 121.5 97.65 127.2 101.17 Q 132.9 104.7 136.35 109.8 Q 139.8 114.9 139.8 121.95 Q 139.8 131.55 133.73 137.7 Q 127.65 143.85 115.8 146.85 Q 103.95 149.85 86.85 149.85 Z M 98.1 169.65 Q 91.5 169.65 87.9 166.5 Q 84.3 163.35 83.85 160.05 Q 82.8 152.4 82.5 145.95 Q 82.2 139.5 82.58 133.35 Q 82.95 127.2 83.85 120.52 Q 84.75 113.85 86.25 105.6 Q 86.85 101.4 89.18 99.37 Q 91.5 97.35 94.8 97.35 Q 98.7 97.35 100.95 100.8 Q 103.2 104.25 103.2 110.4 Q 103.05 117.3 103.2 125.32 Q 103.35 133.35 103.95 141.75 Q 104.55 150.15 105.45 157.95 Q 105.75 163.95 104.03 166.8 Q 102.3 169.65 98.1 169.65 Z M 97.8 104.1 Q 92.4 104.25 90.6 100.57 Q 88.8 96.9 89.1 90 Q 89.55 81.75 89.4 72.9 Q 89.25 64.05 88.5 55.5 Q 87.75 46.95 86.4 39.15 Q 85.8 36 87.08 33.15 Q 88.35 30.3 91.05 28.5 Q 93.75 26.7 97.35 26.7 Q 101.4 26.7 104.55 29.02 Q 107.7 31.35 108.6 34.8 Q 110.55 44.55 110.48 55.35 Q 110.4 66.15 108.98 76.72 Q 107.55 87.3 105.45 96.6 Q 104.55 99.9 102.75 102 Q 100.95 104.1 97.8 104.1 Z" style="fill: rgb(11, 56, 0); text-wrap-mode: nowrap;"/><defs><style>@import url(https://fonts.googleapis.com/css2?family=Shantell+Sans%3Aital%2Cwght%400%2C300..800%3B1%2C300..800&amp;display=swap);</style></defs></svg>